# xmcd
#
# Track frame offsets: 
#        150
#        15518
#        26866
#        42330
#        59704
#        76380
#        91606
#        106459
#        117747
#        136199
#
# Disc length: 2014 seconds
#
# Revision: 4
# Processed by: cddbd v1.5.2PL0 Copyright (c) Steve Scherf et al.
# Submitted via: ExactAudioCopyFreeDBPlugin 1.0
#
DISCID=8207dc0a
DTITLE=Johnny Cash - Rockabilly Blues
DYEAR=1999
DGENRE=Country
TTITLE0=Cold Lonesome Morning
TTITLE1=Without Love
TTITLE2=W-O-M-A-N
TTITLE3=The Cowboy Who Started The Fight
TTITLE4=The Twentieth Century Is Almost Almost Over
TTITLE5=Rockabilly Blues (Texas 1955)
TTITLE6=The Last Time
TTITLE7=She's A Go-er
TTITLE8=It Ain't Nothing New Babe
TTITLE9=One Way Rider
EXTD=O.D.
EXTT0=
EXTT1=
EXTT2=
EXTT3=
EXTT4=
EXTT5=
EXTT6=
EXTT7=
EXTT8=
EXTT9=
PLAYORDER=
